<svg xmlns="http://www.w3.org/2000/svg" xmlns:xlink="http://www.w3.org/1999/xlink" version="1.2" width="1800.00mm" height="100.00mm" viewBox="0 0 1024.2992 56.9055">
<style type="text/css">
<![CDATA[
tspan { white-space: pre; }
]]>
</style>
<!-- Page: 1/1 -->
<g transform="translate(59.5754, 6.0611)">
<rect x="-0.0795" y="-4.8211" width="0.1590" height="6.6277" ry="0.0400" fill="currentColor"/>
</g>
<a style="color:inherit;" xlink:href="textedit://C:/Users/jwloy/Documents/GitHub/ill20231227/public/pieces/ill20231227/notation/featheredbeams.ly:82:78:79">
<g transform="translate(58.2992, 8.0611)">
<path transform="scale(0.0042, -0.0042)" d="M218 136c55 0 108 -28 108 -89c0 -71 -55 -121 -102 -149c-35 -21 -75 -34 -116 -34c-55 0 -108 28 -108 89c0 71 55 121 102 149c35 21 75 34 116 34z" fill="currentColor"/>
</g>
</a>
<g transform="translate(56.7380, 6.0611)">
<rect x="-0.0795" y="-4.8211" width="0.1590" height="6.6277" ry="0.0400" fill="currentColor"/>
</g>
<a style="color:inherit;" xlink:href="textedit://C:/Users/jwloy/Documents/GitHub/ill20231227/public/pieces/ill20231227/notation/featheredbeams.ly:82:75:76">
<g transform="translate(55.4618, 8.0611)">
<path transform="scale(0.0042, -0.0042)" d="M218 136c55 0 108 -28 108 -89c0 -71 -55 -121 -102 -149c-35 -21 -75 -34 -116 -34c-55 0 -108 28 -108 89c0 71 55 121 102 149c35 21 75 34 116 34z" fill="currentColor"/>
</g>
</a>
<a style="color:inherit;" xlink:href="textedit://C:/Users/jwloy/Documents/GitHub/ill20231227/public/pieces/ill20231227/notation/featheredbeams.ly:82:81:82">
<g transform="translate(60.5691, 8.0611)">
<path transform="scale(0.0042, -0.0042)" d="M218 136c55 0 108 -28 108 -89c0 -71 -55 -121 -102 -149c-35 -21 -75 -34 -116 -34c-55 0 -108 28 -108 89c0 71 55 121 102 149c35 21 75 34 116 34z" fill="currentColor"/>
</g>
</a>
<g transform="translate(53.1912, 6.0611)">
<rect x="-0.0795" y="-4.8211" width="0.1590" height="6.6277" ry="0.0400" fill="currentColor"/>
</g>
<a style="color:inherit;" xlink:href="textedit://C:/Users/jwloy/Documents/GitHub/ill20231227/public/pieces/ill20231227/notation/featheredbeams.ly:82:72:73">
<g transform="translate(51.9151, 8.0611)">
<path transform="scale(0.0042, -0.0042)" d="M218 136c55 0 108 -28 108 -89c0 -71 -55 -121 -102 -149c-35 -21 -75 -34 -116 -34c-55 0 -108 28 -108 89c0 71 55 121 102 149c35 21 75 34 116 34z" fill="currentColor"/>
</g>
</a>
<g transform="translate(48.7578, 6.0611)">
<rect x="-0.0795" y="-4.8211" width="0.1590" height="6.6277" ry="0.0400" fill="currentColor"/>
</g>
<a style="color:inherit;" xlink:href="textedit://C:/Users/jwloy/Documents/GitHub/ill20231227/public/pieces/ill20231227/notation/featheredbeams.ly:82:69:70">
<g transform="translate(47.4816, 8.0611)">
<path transform="scale(0.0042, -0.0042)" d="M218 136c55 0 108 -28 108 -89c0 -71 -55 -121 -102 -149c-35 -21 -75 -34 -116 -34c-55 0 -108 28 -108 89c0 71 55 121 102 149c35 21 75 34 116 34z" fill="currentColor"/>
</g>
</a>
<a style="color:inherit;" xlink:href="textedit://C:/Users/jwloy/Documents/GitHub/ill20231227/public/pieces/ill20231227/notation/featheredbeams.ly:82:87:88">
<g transform="translate(64.0407, 8.0611)">
<path transform="scale(0.0042, -0.0042)" d="M218 136c55 0 108 -28 108 -89c0 -71 -55 -121 -102 -149c-35 -21 -75 -34 -116 -34c-55 0 -108 28 -108 89c0 71 55 121 102 149c35 21 75 34 116 34z" fill="currentColor"/>
</g>
</a>
<a style="color:inherit;" xlink:href="textedit://C:/Users/jwloy/Documents/GitHub/ill20231227/public/pieces/ill20231227/notation/featheredbeams.ly:82:55:56">
<g transform="translate(3.1967, 1.2400)">
<polygon stroke-linejoin="round" stroke-linecap="round" stroke-width="0.0800" fill="currentColor" stroke="currentColor" points="62.1597 -0.2000 62.1597 0.2000 0.0400 0.2000 0.0400 -0.2000"/>
</g>
<g transform="translate(3.1967, 1.2400)">
<polygon stroke-linejoin="round" stroke-linecap="round" stroke-width="0.0800" fill="currentColor" stroke="currentColor" points="62.1597 0.6211 62.1597 1.0211 0.0400 0.2000 0.0400 -0.2000"/>
</g>
</a>
<g transform="translate(65.7758, 6.0611)">
<rect x="-0.0795" y="-2.3066" width="0.1590" height="6.8066" ry="0.0400" fill="currentColor"/>
</g>
<a style="color:inherit;" xlink:href="textedit://C:/Users/jwloy/Documents/GitHub/ill20231227/public/pieces/ill20231227/notation/featheredbeams.ly:89:8:9">
<g transform="translate(65.6963, 3.5611)">
<path transform="scale(0.0042, -0.0042)" d="M218 136c55 0 108 -28 108 -89c0 -71 -55 -121 -102 -149c-35 -21 -75 -34 -116 -34c-55 0 -108 28 -108 89c0 71 55 121 102 149c35 21 75 34 116 34z" fill="currentColor"/>
</g>
</a>
<g transform="translate(65.3169, 6.0611)">
<rect x="-0.0795" y="-4.8211" width="0.1590" height="6.6277" ry="0.0400" fill="currentColor"/>
</g>
<g transform="translate(63.6612, 6.0611)">
<rect x="-0.0795" y="-4.8211" width="0.1590" height="6.6277" ry="0.0400" fill="currentColor"/>
</g>
<a style="color:inherit;" xlink:href="textedit://C:/Users/jwloy/Documents/GitHub/ill20231227/public/pieces/ill20231227/notation/featheredbeams.ly:82:84:85">
<g transform="translate(62.3851, 8.0611)">
<path transform="scale(0.0042, -0.0042)" d="M218 136c55 0 108 -28 108 -89c0 -71 -55 -121 -102 -149c-35 -21 -75 -34 -116 -34c-55 0 -108 28 -108 89c0 71 55 121 102 149c35 21 75 34 116 34z" fill="currentColor"/>
</g>
</a>
<g transform="translate(61.8453, 6.0611)">
<rect x="-0.0795" y="-4.8211" width="0.1590" height="6.6277" ry="0.0400" fill="currentColor"/>
</g>
<g transform="translate(16.8059, 6.0611)">
<rect x="-0.0795" y="-4.8211" width="0.1590" height="6.6277" ry="0.0400" fill="currentColor"/>
</g>
<a style="color:inherit;" xlink:href="textedit://C:/Users/jwloy/Documents/GitHub/ill20231227/public/pieces/ill20231227/notation/featheredbeams.ly:82:57:58">
<g transform="translate(15.5298, 8.0611)">
<path transform="scale(0.0042, -0.0042)" d="M218 136c55 0 108 -28 108 -89c0 -71 -55 -121 -102 -149c-35 -21 -75 -34 -116 -34c-55 0 -108 28 -108 89c0 71 55 121 102 149c35 21 75 34 116 34z" fill="currentColor"/>
</g>
</a>
<g transform="translate(3.2762, 6.0611)">
<rect x="-0.0795" y="-4.8211" width="0.1590" height="6.6277" ry="0.0400" fill="currentColor"/>
</g>
<a style="color:inherit;" xlink:href="textedit://C:/Users/jwloy/Documents/GitHub/ill20231227/public/pieces/ill20231227/notation/featheredbeams.ly:74:8:9">
</a>
<a style="color:inherit;" xlink:href="textedit://C:/Users/jwloy/Documents/GitHub/ill20231227/public/pieces/ill20231227/notation/featheredbeams.ly:82:50:51">
<g transform="translate(2.0000, 8.0611)">
<path transform="scale(0.0042, -0.0042)" d="M218 136c55 0 108 -28 108 -89c0 -71 -55 -121 -102 -149c-35 -21 -75 -34 -116 -34c-55 0 -108 28 -108 89c0 71 55 121 102 149c35 21 75 34 116 34z" fill="currentColor"/>
</g>
</a>
<a style="color:inherit;" xlink:href="textedit://C:/Users/jwloy/Documents/GitHub/ill20231227/public/pieces/ill20231227/notation/featheredbeams.ly:82:60:61">
<g transform="translate(26.3536, 8.0611)">
<path transform="scale(0.0042, -0.0042)" d="M218 136c55 0 108 -28 108 -89c0 -71 -55 -121 -102 -149c-35 -21 -75 -34 -116 -34c-55 0 -108 28 -108 89c0 71 55 121 102 149c35 21 75 34 116 34z" fill="currentColor"/>
</g>
</a>
<g transform="translate(43.2160, 6.0611)">
<rect x="-0.0795" y="-4.8211" width="0.1590" height="6.6277" ry="0.0400" fill="currentColor"/>
</g>
<a style="color:inherit;" xlink:href="textedit://C:/Users/jwloy/Documents/GitHub/ill20231227/public/pieces/ill20231227/notation/featheredbeams.ly:82:66:67">
<g transform="translate(41.9398, 8.0611)">
<path transform="scale(0.0042, -0.0042)" d="M218 136c55 0 108 -28 108 -89c0 -71 -55 -121 -102 -149c-35 -21 -75 -34 -116 -34c-55 0 -108 28 -108 89c0 71 55 121 102 149c35 21 75 34 116 34z" fill="currentColor"/>
</g>
</a>
<g transform="translate(36.2888, 6.0611)">
<rect x="-0.0795" y="-4.8211" width="0.1590" height="6.6277" ry="0.0400" fill="currentColor"/>
</g>
<a style="color:inherit;" xlink:href="textedit://C:/Users/jwloy/Documents/GitHub/ill20231227/public/pieces/ill20231227/notation/featheredbeams.ly:82:63:64">
<g transform="translate(35.0126, 8.0611)">
<path transform="scale(0.0042, -0.0042)" d="M218 136c55 0 108 -28 108 -89c0 -71 -55 -121 -102 -149c-35 -21 -75 -34 -116 -34c-55 0 -108 28 -108 89c0 71 55 121 102 149c35 21 75 34 116 34z" fill="currentColor"/>
</g>
</a>
<g transform="translate(27.6297, 6.0611)">
<rect x="-0.0795" y="-4.8211" width="0.1590" height="6.6277" ry="0.0400" fill="currentColor"/>
</g>
</svg>
