<svg xmlns="http://www.w3.org/2000/svg" xmlns:xlink="http://www.w3.org/1999/xlink" version="1.2" width="1800.00mm" height="100.00mm" viewBox="0 0 1024.2992 56.9055">
<style type="text/css">
<![CDATA[
tspan { white-space: pre; }
]]>
</style>
<!-- Page: 1/1 -->
<a style="color:inherit;" xlink:href="textedit://C:/Users/jwloy/Documents/GitHub/ill20231227/public/pieces/ill20231227/notation/ILL20231227.ly:91:8:9">
<g transform="translate(108.5994, 10.0715)">
<path transform="scale(0.0052, -0.0052)" d="M222 135c53 0 104 -27 104 -86c0 -71 -56 -120 -103 -148c-36 -22 -76 -36 -118 -36c-53 0 -105 27 -105 86c0 71 57 120 104 148c36 22 76 36 118 36z" fill="currentColor"/>
</g>
</a>
<a style="color:inherit;" xlink:href="textedit://C:/Users/jwloy/Documents/GitHub/ill20231227/public/pieces/ill20231227/notation/ILL20231227.ly:91:17:18">
<g transform="translate(119.0994, 11.5715)">
<path transform="scale(0.0066, -0.0066)" d="M76 -250l116 327c-35 -12 -70 -23 -107 -23c-46 0 -87 34 -87 80c0 39 31 71 71 71c26 0 49 -16 57 -40c10 -28 6 -60 35 -60c17 0 58 54 65 70c5 11 20 10 24 0l-126 -425c-7 -6 -16 -9 -24 -9s-17 3 -24 9z" fill="currentColor"/>
</g>
</a>
<g transform="translate(232.0300, 11.5715)">
<rect x="-0.0795" y="-4.8318" width="0.1590" height="7.5742" ry="0.0400" fill="currentColor"/>
</g>
<g transform="translate(108.7584, 17.0315)">
<path transform="scale(0.0066, -0.0066)" d="M0 0h-14v250h14v-250zM0 0v250c98 58 228 147 228 259c0 57 -15 112 -40 164c-3 15 9 25 21 25c7 0 14 -3 18 -10c25 -56 40 -117 40 -179c0 -203 -267 -306 -267 -509z" fill="currentColor"/>
</g>
<g transform="translate(108.6789, 11.5715)">
<rect x="-0.0795" y="-1.2424" width="0.1590" height="6.7424" ry="0.0400" fill="currentColor"/>
</g>
<a style="color:inherit;" xlink:href="textedit://C:/Users/jwloy/Documents/GitHub/ill20231227/public/pieces/ill20231227/notation/ILL20231227.ly:91:13:14">
<g transform="translate(109.4544, 9.1657)">
<path transform="scale(0.0052, -0.0052)" d="M-114 0c-8 0 -13 8 -10 15l114 254c2 4 6 6 10 6s8 -2 10 -6l114 -254c3 -7 -2 -15 -10 -15h-68c-4 0 -7 2 -9 6l-71 156l-70 -156c-2 -4 -6 -6 -10 -6z" fill="currentColor"/>
</g>
</a>
<g transform="translate(108.0875, 11.5715)">
<rect x="-0.0795" y="-7.8691" width="0.1590" height="6.2706" ry="0.0400" fill="currentColor"/>
</g>
<a style="color:inherit;" xlink:href="textedit://C:/Users/jwloy/Documents/GitHub/ill20231227/public/pieces/ill20231227/notation/ILL20231227.ly:87:140:141">
<g transform="translate(107.3194, 10.0715)">
<path transform="scale(0.0026, -0.0026)" d="M204 141c63 0 120 -35 120 -103c0 -70 -50 -119 -97 -147c-33 -20 -70 -32 -108 -32c-63 0 -119 35 -119 103c0 70 49 119 96 147c33 20 70 32 108 32z" fill="currentColor"/>
</g>
</a>
<a style="color:inherit;" xlink:href="textedit://C:/Users/jwloy/Documents/GitHub/ill20231227/public/pieces/ill20231227/notation/ILL20231227.ly:95:61:62">
<g transform="translate(134.3621, 13.5715)">
<path transform="scale(0.0052, -0.0052)" d="M222 135c53 0 104 -27 104 -86c0 -71 -56 -120 -103 -148c-36 -22 -76 -36 -118 -36c-53 0 -105 27 -105 86c0 71 57 120 104 148c36 22 76 36 118 36z" fill="currentColor"/>
</g>
</a>
<g transform="translate(133.3467, 11.5715)">
<rect x="-0.0795" y="-4.8211" width="0.1590" height="6.5635" ry="0.0400" fill="currentColor"/>
</g>
<a style="color:inherit;" xlink:href="textedit://C:/Users/jwloy/Documents/GitHub/ill20231227/public/pieces/ill20231227/notation/ILL20231227.ly:95:58:59">
<g transform="translate(131.7161, 13.5715)">
<path transform="scale(0.0052, -0.0052)" d="M222 135c53 0 104 -27 104 -86c0 -71 -56 -120 -103 -148c-36 -22 -76 -36 -118 -36c-53 0 -105 27 -105 86c0 71 57 120 104 148c36 22 76 36 118 36z" fill="currentColor"/>
</g>
</a>
<g transform="translate(131.2300, 11.5715)">
<rect x="-0.0795" y="-4.8211" width="0.1590" height="6.5635" ry="0.0400" fill="currentColor"/>
</g>
<a style="color:inherit;" xlink:href="textedit://C:/Users/jwloy/Documents/GitHub/ill20231227/public/pieces/ill20231227/notation/ILL20231227.ly:95:51:52">
<g transform="translate(129.5994, 13.5715)">
<path transform="scale(0.0052, -0.0052)" d="M222 135c53 0 104 -27 104 -86c0 -71 -56 -120 -103 -148c-36 -22 -76 -36 -118 -36c-53 0 -105 27 -105 86c0 71 57 120 104 148c36 22 76 36 118 36z" fill="currentColor"/>
</g>
</a>
<a style="color:inherit;" xlink:href="textedit://C:/Users/jwloy/Documents/GitHub/ill20231227/public/pieces/ill20231227/notation/ILL20231227.ly:102:37:38">
<g transform="translate(230.3994, 14.5715)">
<path transform="scale(0.0052, -0.0052)" d="M222 135c53 0 104 -27 104 -86c0 -71 -56 -120 -103 -148c-36 -22 -76 -36 -118 -36c-53 0 -105 27 -105 86c0 71 57 120 104 148c36 22 76 36 118 36z" fill="currentColor"/>
</g>
</a>
<g transform="translate(104.2475, 11.5715)">
<rect x="-0.0795" y="-7.8691" width="0.1590" height="7.7706" ry="0.0400" fill="currentColor"/>
</g>
<a style="color:inherit;" xlink:href="textedit://C:/Users/jwloy/Documents/GitHub/ill20231227/public/pieces/ill20231227/notation/ILL20231227.ly:87:104:105">
<g transform="translate(103.4794, 8.5715)">
<path transform="scale(0.0026, -0.0026)" d="M204 141c63 0 120 -35 120 -103c0 -70 -50 -119 -97 -147c-33 -20 -70 -32 -108 -32c-63 0 -119 35 -119 103c0 70 49 119 96 147c33 20 70 32 108 32z" fill="currentColor"/>
</g>
</a>
<a style="color:inherit;" xlink:href="textedit://C:/Users/jwloy/Documents/GitHub/ill20231227/public/pieces/ill20231227/notation/ILL20231227.ly:87:100:101">
<g transform="translate(103.4794, 9.5715)">
<path transform="scale(0.0026, -0.0026)" d="M204 141c63 0 120 -35 120 -103c0 -70 -50 -119 -97 -147c-33 -20 -70 -32 -108 -32c-63 0 -119 35 -119 103c0 70 49 119 96 147c33 20 70 32 108 32z" fill="currentColor"/>
</g>
</a>
<a style="color:inherit;" xlink:href="textedit://C:/Users/jwloy/Documents/GitHub/ill20231227/public/pieces/ill20231227/notation/ILL20231227.ly:87:96:97">
<g transform="translate(103.4794, 10.5715)">
<path transform="scale(0.0026, -0.0026)" d="M204 141c63 0 120 -35 120 -103c0 -70 -50 -119 -97 -147c-33 -20 -70 -32 -108 -32c-63 0 -119 35 -119 103c0 70 49 119 96 147c33 20 70 32 108 32z" fill="currentColor"/>
</g>
</a>
<a style="color:inherit;" xlink:href="textedit://C:/Users/jwloy/Documents/GitHub/ill20231227/public/pieces/ill20231227/notation/ILL20231227.ly:87:93:94">
<g transform="translate(103.4794, 11.5715)">
<path transform="scale(0.0026, -0.0026)" d="M204 141c63 0 120 -35 120 -103c0 -70 -50 -119 -97 -147c-33 -20 -70 -32 -108 -32c-63 0 -119 35 -119 103c0 70 49 119 96 147c33 20 70 32 108 32z" fill="currentColor"/>
</g>
</a>
<g transform="translate(102.9675, 11.5715)">
<rect x="-0.0795" y="-7.8691" width="0.1590" height="8.2706" ry="0.0400" fill="currentColor"/>
</g>
<a style="color:inherit;" xlink:href="textedit://C:/Users/jwloy/Documents/GitHub/ill20231227/public/pieces/ill20231227/notation/ILL20231227.ly:87:82:83">
<g transform="translate(102.1994, 8.0715)">
<path transform="scale(0.0026, -0.0026)" d="M204 141c63 0 120 -35 120 -103c0 -70 -50 -119 -97 -147c-33 -20 -70 -32 -108 -32c-63 0 -119 35 -119 103c0 70 49 119 96 147c33 20 70 32 108 32z" fill="currentColor"/>
</g>
</a>
<a style="color:inherit;" xlink:href="textedit://C:/Users/jwloy/Documents/GitHub/ill20231227/public/pieces/ill20231227/notation/ILL20231227.ly:87:78:79">
<g transform="translate(102.1994, 9.0715)">
<path transform="scale(0.0026, -0.0026)" d="M204 141c63 0 120 -35 120 -103c0 -70 -50 -119 -97 -147c-33 -20 -70 -32 -108 -32c-63 0 -119 35 -119 103c0 70 49 119 96 147c33 20 70 32 108 32z" fill="currentColor"/>
</g>
</a>
<a style="color:inherit;" xlink:href="textedit://C:/Users/jwloy/Documents/GitHub/ill20231227/public/pieces/ill20231227/notation/ILL20231227.ly:87:74:75">
<g transform="translate(102.1994, 10.0715)">
<path transform="scale(0.0026, -0.0026)" d="M204 141c63 0 120 -35 120 -103c0 -70 -50 -119 -97 -147c-33 -20 -70 -32 -108 -32c-63 0 -119 35 -119 103c0 70 49 119 96 147c33 20 70 32 108 32z" fill="currentColor"/>
</g>
</a>
<a style="color:inherit;" xlink:href="textedit://C:/Users/jwloy/Documents/GitHub/ill20231227/public/pieces/ill20231227/notation/ILL20231227.ly:87:70:71">
<g transform="translate(102.1994, 11.0715)">
<path transform="scale(0.0026, -0.0026)" d="M204 141c63 0 120 -35 120 -103c0 -70 -50 -119 -97 -147c-33 -20 -70 -32 -108 -32c-63 0 -119 35 -119 103c0 70 49 119 96 147c33 20 70 32 108 32z" fill="currentColor"/>
</g>
</a>
<a style="color:inherit;" xlink:href="textedit://C:/Users/jwloy/Documents/GitHub/ill20231227/public/pieces/ill20231227/notation/ILL20231227.ly:87:67:68">
<g transform="translate(102.1994, 12.0715)">
<path transform="scale(0.0026, -0.0026)" d="M204 141c63 0 120 -35 120 -103c0 -70 -50 -119 -97 -147c-33 -20 -70 -32 -108 -32c-63 0 -119 35 -119 103c0 70 49 119 96 147c33 20 70 32 108 32z" fill="currentColor"/>
</g>
</a>
<g transform="translate(106.8075, 11.5715)">
<rect x="-0.0795" y="-7.8691" width="0.1590" height="6.7706" ry="0.0400" fill="currentColor"/>
</g>
<a style="color:inherit;" xlink:href="textedit://C:/Users/jwloy/Documents/GitHub/ill20231227/public/pieces/ill20231227/notation/ILL20231227.ly:87:133:134">
<g transform="translate(106.0394, 9.5715)">
<path transform="scale(0.0026, -0.0026)" d="M204 141c63 0 120 -35 120 -103c0 -70 -50 -119 -97 -147c-33 -20 -70 -32 -108 -32c-63 0 -119 35 -119 103c0 70 49 119 96 147c33 20 70 32 108 32z" fill="currentColor"/>
</g>
</a>
<a style="color:inherit;" xlink:href="textedit://C:/Users/jwloy/Documents/GitHub/ill20231227/public/pieces/ill20231227/notation/ILL20231227.ly:87:129:130">
<g transform="translate(106.0394, 10.5715)">
<path transform="scale(0.0026, -0.0026)" d="M204 141c63 0 120 -35 120 -103c0 -70 -50 -119 -97 -147c-33 -20 -70 -32 -108 -32c-63 0 -119 35 -119 103c0 70 49 119 96 147c33 20 70 32 108 32z" fill="currentColor"/>
</g>
</a>
<g transform="translate(135.9927, 11.5715)">
<rect x="-0.0795" y="-4.8211" width="0.1590" height="6.5635" ry="0.0400" fill="currentColor"/>
</g>
<g transform="translate(105.5275, 11.5715)">
<rect x="-0.0795" y="-7.8691" width="0.1590" height="7.2706" ry="0.0400" fill="currentColor"/>
</g>
<a style="color:inherit;" xlink:href="textedit://C:/Users/jwloy/Documents/GitHub/ill20231227/public/pieces/ill20231227/notation/ILL20231227.ly:87:121:122">
<g transform="translate(104.7594, 9.0715)">
<path transform="scale(0.0026, -0.0026)" d="M204 141c63 0 120 -35 120 -103c0 -70 -50 -119 -97 -147c-33 -20 -70 -32 -108 -32c-63 0 -119 35 -119 103c0 70 49 119 96 147c33 20 70 32 108 32z" fill="currentColor"/>
</g>
</a>
<a style="color:inherit;" xlink:href="textedit://C:/Users/jwloy/Documents/GitHub/ill20231227/public/pieces/ill20231227/notation/ILL20231227.ly:87:117:118">
<g transform="translate(104.7594, 10.0715)">
<path transform="scale(0.0026, -0.0026)" d="M204 141c63 0 120 -35 120 -103c0 -70 -50 -119 -97 -147c-33 -20 -70 -32 -108 -32c-63 0 -119 35 -119 103c0 70 49 119 96 147c33 20 70 32 108 32z" fill="currentColor"/>
</g>
</a>
<a style="color:inherit;" xlink:href="textedit://C:/Users/jwloy/Documents/GitHub/ill20231227/public/pieces/ill20231227/notation/ILL20231227.ly:87:113:114">
<g transform="translate(104.7594, 11.0715)">
<path transform="scale(0.0026, -0.0026)" d="M204 141c63 0 120 -35 120 -103c0 -70 -50 -119 -97 -147c-33 -20 -70 -32 -108 -32c-63 0 -119 35 -119 103c0 70 49 119 96 147c33 20 70 32 108 32z" fill="currentColor"/>
</g>
</a>
<a style="color:inherit;" xlink:href="textedit://C:/Users/jwloy/Documents/GitHub/ill20231227/public/pieces/ill20231227/notation/ILL20231227.ly:99:10:11">
<g transform="translate(192.5994, 11.5715)">
<path transform="scale(0.0066, -0.0066)" d="M-23 -113c0 26 10 40 36 40c34 0 85 -15 130 -37l-137 164c-7 8 -10 17 -10 25c0 33 49 64 86 96c26 22 39 54 39 85c0 24 -8 47 -24 67l-39 46c-2 3 -3 6 -3 9c0 7 7 14 14 14c3 0 7 -1 10 -5l152 -182c7 -8 10 -17 10 -25c0 -33 -49 -64 -86 -96
c-26 -22 -39 -54 -39 -85c0 -24 8 -47 24 -67l87 -104c2 -3 3 -5 3 -8c0 -7 -7 -14 -14 -14c-3 0 -7 1 -10 5c-19 22 -66 43 -102 43c-40 0 -52 -29 -52 -70c0 -35 11 -75 28 -96c6 -7 -4 -16 -10 -9c-46 55 -93 150 -93 204z" fill="currentColor"/>
</g>
</a>
<a style="color:inherit;" xlink:href="textedit://C:/Users/jwloy/Documents/GitHub/ill20231227/public/pieces/ill20231227/notation/ILL20231227.ly:102:23:24">
<g transform="translate(213.5994, 11.5715)">
<path transform="scale(0.0066, -0.0066)" d="M71 -500l100 327c-35 -13 -72 -23 -109 -23c-46 0 -87 34 -87 80c0 39 31 71 71 71c26 0 49 -16 57 -40c10 -28 6 -60 35 -60c17 0 57 53 62 70l47 152c-34 -12 -70 -23 -107 -23c-46 0 -87 34 -87 80c0 39 31 71 71 71c26 0 49 -16 57 -40c10 -28 6 -60 35 -60
c17 0 53 54 60 70c4 11 20 11 24 0l-182 -675c-7 -6 -15 -9 -23 -9s-17 3 -24 9z" fill="currentColor"/>
</g>
</a>
<a style="color:inherit;" xlink:href="textedit://C:/Users/jwloy/Documents/GitHub/ill20231227/public/pieces/ill20231227/notation/ILL20231227.ly:99:7:8">
<g transform="translate(171.5994, 11.5715)">
<path transform="scale(0.0066, -0.0066)" d="M-23 -113c0 26 10 40 36 40c34 0 85 -15 130 -37l-137 164c-7 8 -10 17 -10 25c0 33 49 64 86 96c26 22 39 54 39 85c0 24 -8 47 -24 67l-39 46c-2 3 -3 6 -3 9c0 7 7 14 14 14c3 0 7 -1 10 -5l152 -182c7 -8 10 -17 10 -25c0 -33 -49 -64 -86 -96
c-26 -22 -39 -54 -39 -85c0 -24 8 -47 24 -67l87 -104c2 -3 3 -5 3 -8c0 -7 -7 -14 -14 -14c-3 0 -7 1 -10 5c-19 22 -66 43 -102 43c-40 0 -52 -29 -52 -70c0 -35 11 -75 28 -96c6 -7 -4 -16 -10 -9c-46 55 -93 150 -93 204z" fill="currentColor"/>
</g>
</a>
<a style="color:inherit;" xlink:href="textedit://C:/Users/jwloy/Documents/GitHub/ill20231227/public/pieces/ill20231227/notation/ILL20231227.ly:102:30:31">
<g transform="translate(221.9994, 10.0715)">
<path transform="scale(0.0052, -0.0052)" d="M222 135c53 0 104 -27 104 -86c0 -71 -56 -120 -103 -148c-36 -22 -76 -36 -118 -36c-53 0 -105 27 -105 86c0 71 57 120 104 148c36 22 76 36 118 36z" fill="currentColor"/>
</g>
</a>
<a style="color:inherit;" xlink:href="textedit://C:/Users/jwloy/Documents/GitHub/ill20231227/public/pieces/ill20231227/notation/ILL20231227.ly:81:55:56">
<g transform="translate(3.5511, 6.7503)">
<polygon stroke-linejoin="round" stroke-linecap="round" stroke-width="0.0800" fill="currentColor" stroke="currentColor" points="62.7083 -0.2000 62.7083 0.2000 0.0400 0.2000 0.0400 -0.2000"/>
</g>
<g transform="translate(3.5511, 6.7503)">
<polygon stroke-linejoin="round" stroke-linecap="round" stroke-width="0.0800" fill="currentColor" stroke="currentColor" points="62.7083 0.6211 62.7083 1.0211 0.0400 0.2000 0.0400 -0.2000"/>
</g>
</a>
<a style="color:inherit;" xlink:href="textedit://C:/Users/jwloy/Documents/GitHub/ill20231227/public/pieces/ill20231227/notation/ILL20231227.ly:87:10:11">
<g transform="translate(97.7680, 3.7023)">
<polygon stroke-linejoin="round" stroke-linecap="round" stroke-width="0.0800" fill="currentColor" stroke="currentColor" points="10.3590 -0.1520 10.3590 0.1520 0.0400 0.1520 0.0400 -0.1520"/>
</g>
<g transform="translate(97.7680, 3.7023)">
<polygon stroke-linejoin="round" stroke-linecap="round" stroke-width="0.0800" fill="currentColor" stroke="currentColor" points="10.3590 0.5049 10.3590 0.8089 0.0400 0.1520 0.0400 -0.1520"/>
</g>
<g transform="translate(97.7680, 3.7023)">
<polygon stroke-linejoin="round" stroke-linecap="round" stroke-width="0.0800" fill="currentColor" stroke="currentColor" points="10.3590 1.1618 10.3590 1.4658 0.0400 0.1520 0.0400 -0.1520"/>
</g>
</a>
<a style="color:inherit;" xlink:href="textedit://C:/Users/jwloy/Documents/GitHub/ill20231227/public/pieces/ill20231227/notation/ILL20231227.ly:95:56:57">
<g transform="translate(131.1505, 6.7503)">
<polygon stroke-linejoin="round" stroke-linecap="round" stroke-width="0.0800" fill="currentColor" stroke="currentColor" points="32.0256 -0.2000 32.0256 0.2000 0.0400 0.2000 0.0400 -0.2000"/>
</g>
<g transform="translate(131.1505, 7.5715)">
<polygon stroke-linejoin="round" stroke-linecap="round" stroke-width="0.0800" fill="currentColor" stroke="currentColor" points="32.0256 -1.0211 32.0256 -0.6211 0.0400 0.2000 0.0400 -0.2000"/>
</g>
</a>
<a style="color:inherit;" xlink:href="textedit://C:/Users/jwloy/Documents/GitHub/ill20231227/public/pieces/ill20231227/notation/ILL20231227.ly:102:21:22">
<g transform="translate(214.5099, 4.3926)">
<polygon stroke-linejoin="round" stroke-linecap="round" stroke-width="0.0800" fill="currentColor" stroke="currentColor" points="17.5596 2.1577 17.5596 2.5577 0.0400 0.2000 0.0400 -0.2000"/>
</g>
<g transform="translate(214.5099, 5.2137)">
<polygon stroke-linejoin="round" stroke-linecap="round" stroke-width="0.0800" fill="currentColor" stroke="currentColor" points="17.5596 2.1577 17.5596 2.5577 0.0400 0.2000 0.0400 -0.2000"/>
</g>
</a>
<a style="color:inherit;" xlink:href="textedit://C:/Users/jwloy/Documents/GitHub/ill20231227/public/pieces/ill20231227/notation/ILL20231227.ly:102:8:9">
<g transform="translate(213.5994, 1.1633)">
<line stroke-linejoin="round" stroke-linecap="round" stroke-width="0.1957" stroke="currentColor" x1="19.6993" y1="1.7052" x2="19.6993" y2="2.4052"/>
</g>
<g transform="translate(213.5994, 1.1633)">
<line stroke-linejoin="round" stroke-linecap="round" stroke-width="0.1957" stroke="currentColor" x1="-0.1993" y1="-0.0172" x2="-0.1993" y2="0.6828"/>
</g>
<g transform="translate(213.5994, 1.1633)">
<line stroke-linejoin="round" stroke-linecap="round" stroke-width="0.1957" stroke="currentColor" x1="19.6993" y1="1.7052" x2="12.2527" y2="1.0606"/>
</g>
<g transform="translate(213.5994, 1.1633)">
<line stroke-linejoin="round" stroke-linecap="round" stroke-width="0.1957" stroke="currentColor" x1="-0.1993" y1="-0.0172" x2="7.4466" y2="0.6446"/>
</g>
</a>
<a style="color:inherit;" xlink:href="textedit://C:/Users/jwloy/Documents/GitHub/ill20231227/public/pieces/ill20231227/notation/ILL20231227.ly:102:8:9">
<g transform="translate(221.4374, 2.9462)">
<text font-family="serif" font-style="italic" font-size="2.8814" text-anchor="start" fill="currentColor">
<tspan>5:1</tspan>
</text>
</g>
</a>
<g transform="translate(223.6300, 11.5715)">
<rect x="-0.0795" y="-5.9571" width="0.1590" height="4.1995" ry="0.0400" fill="currentColor"/>
</g>
<g transform="translate(219.4300, 11.5715)">
<rect x="-0.0795" y="-6.5197" width="0.1590" height="6.2621" ry="0.0400" fill="currentColor"/>
</g>
<a style="color:inherit;" xlink:href="textedit://C:/Users/jwloy/Documents/GitHub/ill20231227/public/pieces/ill20231227/notation/ILL20231227.ly:102:27:28">
<g transform="translate(217.7994, 11.5715)">
<path transform="scale(0.0052, -0.0052)" d="M222 135c53 0 104 -27 104 -86c0 -71 -56 -120 -103 -148c-36 -22 -76 -36 -118 -36c-53 0 -105 27 -105 86c0 71 57 120 104 148c36 22 76 36 118 36z" fill="currentColor"/>
</g>
</a>
<g transform="translate(143.4343, 11.5715)">
<rect x="-0.0795" y="-4.8211" width="0.1590" height="6.5635" ry="0.0400" fill="currentColor"/>
</g>
<a style="color:inherit;" xlink:href="textedit://C:/Users/jwloy/Documents/GitHub/ill20231227/public/pieces/ill20231227/notation/ILL20231227.ly:95:67:68">
<g transform="translate(141.8037, 13.5715)">
<path transform="scale(0.0052, -0.0052)" d="M222 135c53 0 104 -27 104 -86c0 -71 -56 -120 -103 -148c-36 -22 -76 -36 -118 -36c-53 0 -105 27 -105 86c0 71 57 120 104 148c36 22 76 36 118 36z" fill="currentColor"/>
</g>
</a>
<g transform="translate(139.3001, 11.5715)">
<rect x="-0.0795" y="-4.8211" width="0.1590" height="6.5635" ry="0.0400" fill="currentColor"/>
</g>
<a style="color:inherit;" xlink:href="textedit://C:/Users/jwloy/Documents/GitHub/ill20231227/public/pieces/ill20231227/notation/ILL20231227.ly:95:64:65">
<g transform="translate(137.6695, 13.5715)">
<path transform="scale(0.0052, -0.0052)" d="M222 135c53 0 104 -27 104 -86c0 -71 -56 -120 -103 -148c-36 -22 -76 -36 -118 -36c-53 0 -105 27 -105 86c0 71 57 120 104 148c36 22 76 36 118 36z" fill="currentColor"/>
</g>
</a>
<g transform="translate(155.0619, 11.5715)">
<rect x="-0.0795" y="-4.8211" width="0.1590" height="6.5635" ry="0.0400" fill="currentColor"/>
</g>
<g transform="translate(163.1366, 11.5715)">
<rect x="-0.0795" y="-4.8211" width="0.1590" height="6.5635" ry="0.0400" fill="currentColor"/>
</g>
<a style="color:inherit;" xlink:href="textedit://C:/Users/jwloy/Documents/GitHub/ill20231227/public/pieces/ill20231227/notation/ILL20231227.ly:95:75:76">
<g transform="translate(161.5060, 13.5715)">
<path transform="scale(0.0052, -0.0052)" d="M222 135c53 0 104 -27 104 -86c0 -71 -56 -120 -103 -148c-36 -22 -76 -36 -118 -36c-53 0 -105 27 -105 86c0 71 57 120 104 148c36 22 76 36 118 36z" fill="currentColor"/>
</g>
</a>
<a style="color:inherit;" xlink:href="textedit://C:/Users/jwloy/Documents/GitHub/ill20231227/public/pieces/ill20231227/notation/ILL20231227.ly:102:34:35">
<g transform="translate(226.1994, 13.0715)">
<path transform="scale(0.0052, -0.0052)" d="M222 135c53 0 104 -27 104 -86c0 -71 -56 -120 -103 -148c-36 -22 -76 -36 -118 -36c-53 0 -105 27 -105 86c0 71 57 120 104 148c36 22 76 36 118 36z" fill="currentColor"/>
</g>
</a>
<a style="color:inherit;" xlink:href="textedit://C:/Users/jwloy/Documents/GitHub/ill20231227/public/pieces/ill20231227/notation/ILL20231227.ly:95:73:74">
<g transform="translate(153.4313, 13.5715)">
<path transform="scale(0.0052, -0.0052)" d="M222 135c53 0 104 -27 104 -86c0 -71 -56 -120 -103 -148c-36 -22 -76 -36 -118 -36c-53 0 -105 27 -105 86c0 71 57 120 104 148c36 22 76 36 118 36z" fill="currentColor"/>
</g>
</a>
<g transform="translate(227.8300, 11.5715)">
<rect x="-0.0795" y="-5.3944" width="0.1590" height="6.6368" ry="0.0400" fill="currentColor"/>
</g>
<g transform="translate(148.6021, 11.5715)">
<rect x="-0.0795" y="-4.8211" width="0.1590" height="6.5635" ry="0.0400" fill="currentColor"/>
</g>
<a style="color:inherit;" xlink:href="textedit://C:/Users/jwloy/Documents/GitHub/ill20231227/public/pieces/ill20231227/notation/ILL20231227.ly:95:70:71">
<g transform="translate(146.9715, 13.5715)">
<path transform="scale(0.0052, -0.0052)" d="M222 135c53 0 104 -27 104 -86c0 -71 -56 -120 -103 -148c-36 -22 -76 -36 -118 -36c-53 0 -105 27 -105 86c0 71 57 120 104 148c36 22 76 36 118 36z" fill="currentColor"/>
</g>
</a>
<g transform="translate(53.5457, 11.5715)">
<rect x="-0.0795" y="-4.8211" width="0.1590" height="6.5635" ry="0.0400" fill="currentColor"/>
</g>
<a style="color:inherit;" xlink:href="textedit://C:/Users/jwloy/Documents/GitHub/ill20231227/public/pieces/ill20231227/notation/ILL20231227.ly:81:72:73">
<g transform="translate(51.9151, 13.5715)">
<path transform="scale(0.0052, -0.0052)" d="M222 135c53 0 104 -27 104 -86c0 -71 -56 -120 -103 -148c-36 -22 -76 -36 -118 -36c-53 0 -105 27 -105 86c0 71 57 120 104 148c36 22 76 36 118 36z" fill="currentColor"/>
</g>
</a>
<a style="color:inherit;" xlink:href="textedit://C:/Users/jwloy/Documents/GitHub/ill20231227/public/pieces/ill20231227/notation/ILL20231227.ly:81:75:76">
<g transform="translate(55.4618, 13.5715)">
<path transform="scale(0.0052, -0.0052)" d="M222 135c53 0 104 -27 104 -86c0 -71 -56 -120 -103 -148c-36 -22 -76 -36 -118 -36c-53 0 -105 27 -105 86c0 71 57 120 104 148c36 22 76 36 118 36z" fill="currentColor"/>
</g>
</a>
<g transform="translate(49.1122, 11.5715)">
<rect x="-0.0795" y="-4.8211" width="0.1590" height="6.5635" ry="0.0400" fill="currentColor"/>
</g>
<a style="color:inherit;" xlink:href="textedit://C:/Users/jwloy/Documents/GitHub/ill20231227/public/pieces/ill20231227/notation/ILL20231227.ly:81:69:70">
<g transform="translate(47.4816, 13.5715)">
<path transform="scale(0.0052, -0.0052)" d="M222 135c53 0 104 -27 104 -86c0 -71 -56 -120 -103 -148c-36 -22 -76 -36 -118 -36c-53 0 -105 27 -105 86c0 71 57 120 104 148c36 22 76 36 118 36z" fill="currentColor"/>
</g>
</a>
<g transform="translate(43.5705, 11.5715)">
<rect x="-0.0795" y="-4.8211" width="0.1590" height="6.5635" ry="0.0400" fill="currentColor"/>
</g>
<a style="color:inherit;" xlink:href="textedit://C:/Users/jwloy/Documents/GitHub/ill20231227/public/pieces/ill20231227/notation/ILL20231227.ly:81:66:67">
<g transform="translate(41.9398, 13.5715)">
<path transform="scale(0.0052, -0.0052)" d="M222 135c53 0 104 -27 104 -86c0 -71 -56 -120 -103 -148c-36 -22 -76 -36 -118 -36c-53 0 -105 27 -105 86c0 71 57 120 104 148c36 22 76 36 118 36z" fill="currentColor"/>
</g>
</a>
<g transform="translate(62.1997, 11.5715)">
<rect x="-0.0795" y="-4.8211" width="0.1590" height="6.5635" ry="0.0400" fill="currentColor"/>
</g>
<a style="color:inherit;" xlink:href="textedit://C:/Users/jwloy/Documents/GitHub/ill20231227/public/pieces/ill20231227/notation/ILL20231227.ly:81:81:82">
<g transform="translate(60.5691, 13.5715)">
<path transform="scale(0.0052, -0.0052)" d="M222 135c53 0 104 -27 104 -86c0 -71 -56 -120 -103 -148c-36 -22 -76 -36 -118 -36c-53 0 -105 27 -105 86c0 71 57 120 104 148c36 22 76 36 118 36z" fill="currentColor"/>
</g>
</a>
<g transform="translate(59.9298, 11.5715)">
<rect x="-0.0795" y="-4.8211" width="0.1590" height="6.5635" ry="0.0400" fill="currentColor"/>
</g>
<a style="color:inherit;" xlink:href="textedit://C:/Users/jwloy/Documents/GitHub/ill20231227/public/pieces/ill20231227/notation/ILL20231227.ly:81:78:79">
<g transform="translate(58.2992, 13.5715)">
<path transform="scale(0.0052, -0.0052)" d="M222 135c53 0 104 -27 104 -86c0 -71 -56 -120 -103 -148c-36 -22 -76 -36 -118 -36c-53 0 -105 27 -105 86c0 71 57 120 104 148c36 22 76 36 118 36z" fill="currentColor"/>
</g>
</a>
<g transform="translate(57.0924, 11.5715)">
<rect x="-0.0795" y="-4.8211" width="0.1590" height="6.5635" ry="0.0400" fill="currentColor"/>
</g>
<g transform="translate(3.6306, 11.5715)">
<rect x="-0.0795" y="-4.8211" width="0.1590" height="6.5635" ry="0.0400" fill="currentColor"/>
</g>
<a style="color:inherit;" xlink:href="textedit://C:/Users/jwloy/Documents/GitHub/ill20231227/public/pieces/ill20231227/notation/ILL20231227.ly:74:8:9">
</a>
<a style="color:inherit;" xlink:href="textedit://C:/Users/jwloy/Documents/GitHub/ill20231227/public/pieces/ill20231227/notation/ILL20231227.ly:81:50:51">
<g transform="translate(2.0000, 13.5715)">
<path transform="scale(0.0052, -0.0052)" d="M222 135c53 0 104 -27 104 -86c0 -71 -56 -120 -103 -148c-36 -22 -76 -36 -118 -36c-53 0 -105 27 -105 86c0 71 57 120 104 148c36 22 76 36 118 36z" fill="currentColor"/>
</g>
</a>
<g transform="translate(36.6432, 11.5715)">
<rect x="-0.0795" y="-4.8211" width="0.1590" height="6.5635" ry="0.0400" fill="currentColor"/>
</g>
<a style="color:inherit;" xlink:href="textedit://C:/Users/jwloy/Documents/GitHub/ill20231227/public/pieces/ill20231227/notation/ILL20231227.ly:81:63:64">
<g transform="translate(35.0126, 13.5715)">
<path transform="scale(0.0052, -0.0052)" d="M222 135c53 0 104 -27 104 -86c0 -71 -56 -120 -103 -148c-36 -22 -76 -36 -118 -36c-53 0 -105 27 -105 86c0 71 57 120 104 148c36 22 76 36 118 36z" fill="currentColor"/>
</g>
</a>
<g transform="translate(27.9842, 11.5715)">
<rect x="-0.0795" y="-4.8211" width="0.1590" height="6.5635" ry="0.0400" fill="currentColor"/>
</g>
<a style="color:inherit;" xlink:href="textedit://C:/Users/jwloy/Documents/GitHub/ill20231227/public/pieces/ill20231227/notation/ILL20231227.ly:81:60:61">
<g transform="translate(26.3536, 13.5715)">
<path transform="scale(0.0052, -0.0052)" d="M222 135c53 0 104 -27 104 -86c0 -71 -56 -120 -103 -148c-36 -22 -76 -36 -118 -36c-53 0 -105 27 -105 86c0 71 57 120 104 148c36 22 76 36 118 36z" fill="currentColor"/>
</g>
</a>
<g transform="translate(17.1604, 11.5715)">
<rect x="-0.0795" y="-4.8211" width="0.1590" height="6.5635" ry="0.0400" fill="currentColor"/>
</g>
<a style="color:inherit;" xlink:href="textedit://C:/Users/jwloy/Documents/GitHub/ill20231227/public/pieces/ill20231227/notation/ILL20231227.ly:81:57:58">
<g transform="translate(15.5298, 13.5715)">
<path transform="scale(0.0052, -0.0052)" d="M222 135c53 0 104 -27 104 -86c0 -71 -56 -120 -103 -148c-36 -22 -76 -36 -118 -36c-53 0 -105 27 -105 86c0 71 57 120 104 148c36 22 76 36 118 36z" fill="currentColor"/>
</g>
</a>
<g transform="translate(99.1275, 11.5715)">
<rect x="-0.0795" y="-7.8691" width="0.1590" height="6.7706" ry="0.0400" fill="currentColor"/>
</g>
<a style="color:inherit;" xlink:href="textedit://C:/Users/jwloy/Documents/GitHub/ill20231227/public/pieces/ill20231227/notation/ILL20231227.ly:87:24:25">
<g transform="translate(98.3594, 9.5715)">
<path transform="scale(0.0026, -0.0026)" d="M204 141c63 0 120 -35 120 -103c0 -70 -50 -119 -97 -147c-33 -20 -70 -32 -108 -32c-63 0 -119 35 -119 103c0 70 49 119 96 147c33 20 70 32 108 32z" fill="currentColor"/>
</g>
</a>
<a style="color:inherit;" xlink:href="textedit://C:/Users/jwloy/Documents/GitHub/ill20231227/public/pieces/ill20231227/notation/ILL20231227.ly:87:20:21">
<g transform="translate(98.3594, 10.5715)">
<path transform="scale(0.0026, -0.0026)" d="M204 141c63 0 120 -35 120 -103c0 -70 -50 -119 -97 -147c-33 -20 -70 -32 -108 -32c-63 0 -119 35 -119 103c0 70 49 119 96 147c33 20 70 32 108 32z" fill="currentColor"/>
</g>
</a>
<g transform="translate(97.8475, 11.5715)">
<rect x="-0.0795" y="-7.8691" width="0.1590" height="6.2706" ry="0.0400" fill="currentColor"/>
</g>
<a style="color:inherit;" xlink:href="textedit://C:/Users/jwloy/Documents/GitHub/ill20231227/public/pieces/ill20231227/notation/ILL20231227.ly:87:12:13">
<g transform="translate(97.0794, 10.0715)">
<path transform="scale(0.0026, -0.0026)" d="M204 141c63 0 120 -35 120 -103c0 -70 -50 -119 -97 -147c-33 -20 -70 -32 -108 -32c-63 0 -119 35 -119 103c0 70 49 119 96 147c33 20 70 32 108 32z" fill="currentColor"/>
</g>
</a>
<g transform="translate(101.6875, 11.5715)">
<rect x="-0.0795" y="-7.8691" width="0.1590" height="7.7706" ry="0.0400" fill="currentColor"/>
</g>
<a style="color:inherit;" xlink:href="textedit://C:/Users/jwloy/Documents/GitHub/ill20231227/public/pieces/ill20231227/notation/ILL20231227.ly:87:58:59">
<g transform="translate(100.9194, 8.5715)">
<path transform="scale(0.0026, -0.0026)" d="M204 141c63 0 120 -35 120 -103c0 -70 -50 -119 -97 -147c-33 -20 -70 -32 -108 -32c-63 0 -119 35 -119 103c0 70 49 119 96 147c33 20 70 32 108 32z" fill="currentColor"/>
</g>
</a>
<a style="color:inherit;" xlink:href="textedit://C:/Users/jwloy/Documents/GitHub/ill20231227/public/pieces/ill20231227/notation/ILL20231227.ly:87:54:55">
<g transform="translate(100.9194, 9.5715)">
<path transform="scale(0.0026, -0.0026)" d="M204 141c63 0 120 -35 120 -103c0 -70 -50 -119 -97 -147c-33 -20 -70 -32 -108 -32c-63 0 -119 35 -119 103c0 70 49 119 96 147c33 20 70 32 108 32z" fill="currentColor"/>
</g>
</a>
<a style="color:inherit;" xlink:href="textedit://C:/Users/jwloy/Documents/GitHub/ill20231227/public/pieces/ill20231227/notation/ILL20231227.ly:87:50:51">
<g transform="translate(100.9194, 10.5715)">
<path transform="scale(0.0026, -0.0026)" d="M204 141c63 0 120 -35 120 -103c0 -70 -50 -119 -97 -147c-33 -20 -70 -32 -108 -32c-63 0 -119 35 -119 103c0 70 49 119 96 147c33 20 70 32 108 32z" fill="currentColor"/>
</g>
</a>
<a style="color:inherit;" xlink:href="textedit://C:/Users/jwloy/Documents/GitHub/ill20231227/public/pieces/ill20231227/notation/ILL20231227.ly:87:47:48">
<g transform="translate(100.9194, 11.5715)">
<path transform="scale(0.0026, -0.0026)" d="M204 141c63 0 120 -35 120 -103c0 -70 -50 -119 -97 -147c-33 -20 -70 -32 -108 -32c-63 0 -119 35 -119 103c0 70 49 119 96 147c33 20 70 32 108 32z" fill="currentColor"/>
</g>
</a>
<a style="color:inherit;" xlink:href="textedit://C:/Users/jwloy/Documents/GitHub/ill20231227/public/pieces/ill20231227/notation/ILL20231227.ly:107:8:9">
<g transform="translate(234.5994, 9.0715)">
<path transform="scale(0.0052, -0.0052)" d="M222 135c53 0 104 -27 104 -86c0 -71 -56 -120 -103 -148c-36 -22 -76 -36 -118 -36c-53 0 -105 27 -105 86c0 71 57 120 104 148c36 22 76 36 118 36z" fill="currentColor"/>
</g>
</a>
<a style="color:inherit;" xlink:href="textedit://C:/Users/jwloy/Documents/GitHub/ill20231227/public/pieces/ill20231227/notation/ILL20231227.ly:81:84:85">
<g transform="translate(62.5792, 13.5715)">
<path transform="scale(0.0052, -0.0052)" d="M222 135c53 0 104 -27 104 -86c0 -71 -56 -120 -103 -148c-36 -22 -76 -36 -118 -36c-53 0 -105 27 -105 86c0 71 57 120 104 148c36 22 76 36 118 36z" fill="currentColor"/>
</g>
</a>
<g transform="translate(100.4075, 11.5715)">
<rect x="-0.0795" y="-7.8691" width="0.1590" height="7.2706" ry="0.0400" fill="currentColor"/>
</g>
<a style="color:inherit;" xlink:href="textedit://C:/Users/jwloy/Documents/GitHub/ill20231227/public/pieces/ill20231227/notation/ILL20231227.ly:87:39:40">
<g transform="translate(99.6394, 9.0715)">
<path transform="scale(0.0026, -0.0026)" d="M204 141c63 0 120 -35 120 -103c0 -70 -50 -119 -97 -147c-33 -20 -70 -32 -108 -32c-63 0 -119 35 -119 103c0 70 49 119 96 147c33 20 70 32 108 32z" fill="currentColor"/>
</g>
</a>
<a style="color:inherit;" xlink:href="textedit://C:/Users/jwloy/Documents/GitHub/ill20231227/public/pieces/ill20231227/notation/ILL20231227.ly:87:35:36">
<g transform="translate(99.6394, 10.0715)">
<path transform="scale(0.0026, -0.0026)" d="M204 141c63 0 120 -35 120 -103c0 -70 -50 -119 -97 -147c-33 -20 -70 -32 -108 -32c-63 0 -119 35 -119 103c0 70 49 119 96 147c33 20 70 32 108 32z" fill="currentColor"/>
</g>
</a>
<a style="color:inherit;" xlink:href="textedit://C:/Users/jwloy/Documents/GitHub/ill20231227/public/pieces/ill20231227/notation/ILL20231227.ly:87:31:32">
<g transform="translate(99.6394, 11.0715)">
<path transform="scale(0.0026, -0.0026)" d="M204 141c63 0 120 -35 120 -103c0 -70 -50 -119 -97 -147c-33 -20 -70 -32 -108 -32c-63 0 -119 35 -119 103c0 70 49 119 96 147c33 20 70 32 108 32z" fill="currentColor"/>
</g>
</a>
<g transform="translate(234.6789, 11.5715)">
<rect x="-0.0795" y="-2.2424" width="0.1590" height="6.7424" ry="0.0400" fill="currentColor"/>
</g>
<g transform="translate(66.2199, 11.5715)">
<rect x="-0.0795" y="-4.8211" width="0.1590" height="6.5635" ry="0.0400" fill="currentColor"/>
</g>
<a style="color:inherit;" xlink:href="textedit://C:/Users/jwloy/Documents/GitHub/ill20231227/public/pieces/ill20231227/notation/ILL20231227.ly:81:87:88">
<g transform="translate(64.5893, 13.5715)">
<path transform="scale(0.0052, -0.0052)" d="M222 135c53 0 104 -27 104 -86c0 -71 -56 -120 -103 -148c-36 -22 -76 -36 -118 -36c-53 0 -105 27 -105 86c0 71 57 120 104 148c36 22 76 36 118 36z" fill="currentColor"/>
</g>
</a>
<a style="color:inherit;" xlink:href="textedit://C:/Users/jwloy/Documents/GitHub/ill20231227/public/pieces/ill20231227/notation/ILL20231227.ly:83:8:9">
<g transform="translate(66.5994, 11.5715)">
<path transform="scale(0.0066, -0.0066)" d="M-23 -113c0 26 10 40 36 40c34 0 85 -15 130 -37l-137 164c-7 8 -10 17 -10 25c0 33 49 64 86 96c26 22 39 54 39 85c0 24 -8 47 -24 67l-39 46c-2 3 -3 6 -3 9c0 7 7 14 14 14c3 0 7 -1 10 -5l152 -182c7 -8 10 -17 10 -25c0 -33 -49 -64 -86 -96
c-26 -22 -39 -54 -39 -85c0 -24 8 -47 24 -67l87 -104c2 -3 3 -5 3 -8c0 -7 -7 -14 -14 -14c-3 0 -7 1 -10 5c-19 22 -66 43 -102 43c-40 0 -52 -29 -52 -70c0 -35 11 -75 28 -96c6 -7 -4 -16 -10 -9c-46 55 -93 150 -93 204z" fill="currentColor"/>
</g>
</a>
<g transform="translate(64.2098, 11.5715)">
<rect x="-0.0795" y="-4.8211" width="0.1590" height="6.5635" ry="0.0400" fill="currentColor"/>
</g>
<a style="color:inherit;" xlink:href="textedit://C:/Users/jwloy/Documents/GitHub/ill20231227/public/pieces/ill20231227/notation/ILL20231227.ly:83:11:12">
<g transform="translate(87.5994, 11.5715)">
<path transform="scale(0.0066, -0.0066)" d="M-23 -113c0 26 10 40 36 40c34 0 85 -15 130 -37l-137 164c-7 8 -10 17 -10 25c0 33 49 64 86 96c26 22 39 54 39 85c0 24 -8 47 -24 67l-39 46c-2 3 -3 6 -3 9c0 7 7 14 14 14c3 0 7 -1 10 -5l152 -182c7 -8 10 -17 10 -25c0 -33 -49 -64 -86 -96
c-26 -22 -39 -54 -39 -85c0 -24 8 -47 24 -67l87 -104c2 -3 3 -5 3 -8c0 -7 -7 -14 -14 -14c-3 0 -7 1 -10 5c-19 22 -66 43 -102 43c-40 0 -52 -29 -52 -70c0 -35 11 -75 28 -96c6 -7 -4 -16 -10 -9c-46 55 -93 150 -93 204z" fill="currentColor"/>
</g>
</a>
</svg>
